# xmcd
#
# Track frame offsets:
# 150
# 12683
# 26070
# 39558
# 55613
# 71478
# 91143
# 108060
# 125603
# 140475
#
# Disc length: 2126 seconds
#
#
# Revision: 0
# Processed by: cddbd v1.4PL0 Copyright (c) Steve Scherf et al.
# Submitted via: FreeRIP 2.51 
#
DISCID=82084c0a
DTITLE=Dag Kåre - One night in  a kingdom
DYEAR=1996
DGENRE=Country
TTITLE0=One Night in a Kingdom
TTITLE1=Just to break
TTITLE2=I wish I was a farmer
TTITLE3=Can we only hold the night
TTITLE4=California 66
TTITLE5=Beatiful dream
TTITLE6=I dont wanna hear it
TTITLE7=20 miles
TTITLE8=Cowboys never die
TTITLE9=Back to Bloomingdale
EXTD=BUMS Records 54123
EXTT0=
EXTT1=
EXTT2=
EXTT3=
EXTT4=
EXTT5=
EXTT6=
EXTT7=
EXTT8=
EXTT9=
PLAYORDER=
